<svg width="1024" height="1024" xmlns="http://www.w3.org/2000/svg">
    <path fill="#5c913b" fill-rule="evenodd" d="M357.62 154.38c56.821-56.821 85.232-85.232 118.463-94.604a132.32 132.32 0 0 1 71.834 0c33.231 9.372 61.642 37.783 118.463 94.604l203.24 203.24c56.821 56.821 85.232 85.232 94.604 118.463a132.32 132.32 0 0 1 0 71.834c-9.372 33.231-37.783 61.642-94.604 118.463L666.38 869.62c-56.821 56.821-85.232 85.232-118.463 94.604a132.319 132.319 0 0 1-71.834 0c-33.231-9.372-61.642-37.783-118.463-94.604L154.38 666.38c-56.821-56.821-85.232-85.232-94.604-118.463a132.318 132.318 0 0 1 0-71.834c9.372-33.231 37.783-61.642 94.604-118.463Z"/>
    <filter id="a" x="0" y="0" width="1024" height="1024" filterUnits="userSpaceOnUse" primitiveUnits="userSpaceOnUse" color-interpolation-filters="sRGB">
        <feGaussianBlur stdDeviation="18.378"/>
        <feOffset dy="7.351" result="offsetblur"/>
        <feFlood flood-color="#000" flood-opacity=".4"/>
        <feComposite in2="offsetblur" operator="in"/>
        <feMerge>
            <feMergeNode/>
            <feMergeNode in="SourceGraphic"/>
        </feMerge>
    </filter>
    <path fill="#ffe8b6" fill-rule="evenodd" filter="url(#a)" d="M383.23 209.478c47.35-47.35 71.026-71.026 98.72-78.836a110.266 110.266 0 0 1 59.86 0c27.694 7.81 51.369 31.486 98.72 78.836L814.66 383.61c47.351 47.351 71.027 71.026 78.837 98.72a110.265 110.265 0 0 1 0 59.86c-7.81 27.694-31.486 51.37-78.837 98.72L640.53 815.042c-47.351 47.35-71.027 71.026-98.72 78.836a110.265 110.265 0 0 1-59.86 0c-27.694-7.81-51.37-31.485-98.72-78.836L209.098 640.91c-47.35-47.35-71.026-71.026-78.836-98.72a110.266 110.266 0 0 1 0-59.86c7.81-27.694 31.485-51.369 78.836-98.72Z"/>
    <filter id="b" x="0" y="0" width="1024" height="1024" filterUnits="userSpaceOnUse" primitiveUnits="userSpaceOnUse" color-interpolation-filters="sRGB">
        <feGaussianBlur stdDeviation="18.378"/>
        <feOffset dy="7.351" result="offsetblur"/>
        <feFlood flood-color="#000" flood-opacity=".4"/>
        <feComposite in2="offsetblur" operator="in"/>
        <feMerge>
            <feMergeNode/>
            <feMergeNode in="SourceGraphic"/>
        </feMerge>
    </filter>
    <path fill="#dd2e44" fill-rule="evenodd" filter="url(#b)" d="M404.822 239.527c39.46-39.46 59.189-59.189 82.266-65.697a91.889 91.889 0 0 1 49.885 0c23.077 6.508 42.807 26.238 82.266 65.697l165.295 165.295c39.459 39.46 59.188 59.189 65.697 82.266a91.888 91.888 0 0 1 0 49.884c-6.509 23.078-26.238 42.808-65.697 82.266L619.239 784.534c-39.46 39.459-59.189 59.188-82.266 65.697a91.888 91.888 0 0 1-49.885 0c-23.077-6.509-42.807-26.238-82.266-65.697L239.527 619.239c-39.46-39.46-59.189-59.189-65.697-82.267a91.888 91.888 0 0 1 0-49.884c6.508-23.077 26.238-42.807 65.697-82.266Z"/>
    <filter id="c" x="0" y="0" width="1024" height="1024" filterUnits="userSpaceOnUse" primitiveUnits="userSpaceOnUse" color-interpolation-filters="sRGB">
        <feGaussianBlur stdDeviation="3.676"/>
        <feOffset dx="5.198" dy="5.198" result="offsetblur"/>
        <feFlood flood-color="#000" flood-opacity=".104"/>
        <feComposite in2="offsetblur" operator="in"/>
        <feMerge>
            <feMergeNode/>
            <feMergeNode in="SourceGraphic"/>
        </feMerge>
    </filter>
    <path fill="#ff554d" fill-rule="evenodd" filter="url(#c)" d="M405.568 606.767s-14.487 11.68-31.187 15.594c-9.553 2.238-24.422 1.568-31.188-5.198l-103.96-103.96c-6.766-6.766-7.436-21.635-5.198-31.187 3.914-16.7 15.594-31.188 15.594-31.188l197.523-197.523s14.488-11.68 31.188-15.594c9.553-2.239 24.422-1.568 31.188 5.198l103.96 103.96c6.765 6.765 7.436 21.634 5.197 31.187-3.913 16.7-15.594 31.188-15.594 31.188Z"/>
    <filter id="d" x="0" y="0" width="1024" height="1024" filterUnits="userSpaceOnUse" primitiveUnits="userSpaceOnUse" color-interpolation-filters="sRGB">
        <feGaussianBlur stdDeviation="3.676"/>
        <feOffset dx="5.198" dy="5.198" result="offsetblur"/>
        <feFlood flood-color="#000" flood-opacity=".104"/>
        <feComposite in2="offsetblur" operator="in"/>
        <feMerge>
            <feMergeNode/>
            <feMergeNode in="SourceGraphic"/>
        </feMerge>
    </filter>
    <path fill="#ff554d" fill-rule="evenodd" filter="url(#d)" d="M574.579 779.453s-14.488 11.68-31.188 15.594c-9.553 2.238-24.422 1.568-31.188-5.198l-103.96-103.96c-6.765-6.766-7.436-21.635-5.197-31.187 3.914-16.7 15.594-31.188 15.594-31.188L616.163 425.99s14.488-11.68 31.187-15.594c9.553-2.239 24.422-1.568 31.188 5.198l103.96 103.96c6.766 6.765 7.436 21.634 5.198 31.187-3.914 16.7-15.594 31.188-15.594 31.188Z"/>
    <filter id="e" x="0" y="0" width="1024" height="1024" filterUnits="userSpaceOnUse" primitiveUnits="userSpaceOnUse" color-interpolation-filters="sRGB">
        <feGaussianBlur stdDeviation="3.676"/>
        <feOffset dx="5.198" dy="5.198" result="offsetblur"/>
        <feFlood flood-color="#000" flood-opacity=".35"/>
        <feComposite in2="offsetblur" operator="in"/>
        <feMerge>
            <feMergeNode/>
            <feMergeNode in="SourceGraphic"/>
        </feMerge>
    </filter>
    <path fill="#31352e" fill-rule="evenodd" filter="url(#e)" d="M414.022 532.978s-8.315 6.704-17.9 8.95c-5.483 1.285-14.016.9-17.9-2.983l-59.667-59.667c-3.883-3.884-4.268-12.417-2.983-17.9 2.246-9.585 8.95-17.9 8.95-17.9L437.89 330.11s8.315-6.704 17.9-8.95c5.482-1.285 14.016-.9 17.9 2.984l59.666 59.666c3.884 3.884 4.269 12.418 2.984 17.9-2.246 9.585-8.95 17.9-8.95 17.9Z"/>
    <filter id="f" x="0" y="0" width="1024" height="1024" filterUnits="userSpaceOnUse" primitiveUnits="userSpaceOnUse" color-interpolation-filters="sRGB">
        <feGaussianBlur stdDeviation="3.676"/>
        <feOffset dx="5.198" dy="5.198" result="offsetblur"/>
        <feFlood flood-color="#000" flood-opacity=".35"/>
        <feComposite in2="offsetblur" operator="in"/>
        <feMerge>
            <feMergeNode/>
            <feMergeNode in="SourceGraphic"/>
        </feMerge>
    </filter>
    <path fill="#31352e" fill-rule="evenodd" filter="url(#f)" d="M677.203 544.885c7.177 7.176 18.813 7.176 25.99 0l19.954-19.955c7.177-7.176 7.177-18.813 0-25.99l-19.954-19.954c-7.177-7.176-18.813-7.176-25.99 0l-19.954 19.955c-7.177 7.176-7.177 18.813 0 25.99Z"/>
    <filter id="g" x="0" y="0" width="1024" height="1024" filterUnits="userSpaceOnUse" primitiveUnits="userSpaceOnUse" color-interpolation-filters="sRGB">
        <feGaussianBlur stdDeviation="3.676"/>
        <feOffset dx="5.198" dy="5.198" result="offsetblur"/>
        <feFlood flood-color="#000" flood-opacity=".35"/>
        <feComposite in2="offsetblur" operator="in"/>
        <feMerge>
            <feMergeNode/>
            <feMergeNode in="SourceGraphic"/>
        </feMerge>
    </filter>
    <path fill="#31352e" fill-rule="evenodd" filter="url(#g)" d="M489.752 728.66c7.177 7.177 18.813 7.177 25.99 0l19.954-19.954c7.177-7.177 7.177-18.813 0-25.99l-19.954-19.954c-7.177-7.176-18.813-7.176-25.99 0l-19.954 19.955c-7.177 7.176-7.177 18.812 0 25.99Z"/>
</svg>
