<?xml version="1.0" encoding="UTF-8" standalone="no"?>
<svg
   xml:space="preserve"
   width="300"
   height="51.284782"
   version="1.1"
   id="svg16"
   sodipodi:docname="ds_back.svg"
   inkscape:version="1.1 (c68e22c387, 2021-05-23)"
   xmlns:inkscape="http://www.inkscape.org/namespaces/inkscape"
   xmlns:sodipodi="http://sodipodi.sourceforge.net/DTD/sodipodi-0.dtd"
   xmlns="http://www.w3.org/2000/svg"
   xmlns:svg="http://www.w3.org/2000/svg"><defs
   id="defs20" /><sodipodi:namedview
   id="namedview18"
   pagecolor="#ffffff"
   bordercolor="#666666"
   borderopacity="1.0"
   inkscape:pageshadow="2"
   inkscape:pageopacity="0.0"
   inkscape:pagecheckerboard="0"
   showgrid="false"
   inkscape:zoom="4.09"
   inkscape:cx="140.46455"
   inkscape:cy="-15.89242"
   inkscape:window-width="1680"
   inkscape:window-height="977"
   inkscape:window-x="0"
   inkscape:window-y="0"
   inkscape:window-maximized="1"
   inkscape:current-layer="svg16" />
  <path
   fill="none"
   stroke="#000"
   stroke-width="1.8"
   stroke-linecap="round"
   stroke-linejoin="round"
   stroke-miterlimit="10"
   d="M205.42331 12.644795h.47269v.157563h.31513v.157563h.23634v.157563h.15757l.0788.157564h.0788l.0788.157563h.0788v.157563h.0788v.157563h.0788v.157563h.0788v.157563h.0788V14.37799h.0788v3.466389h-.0788v.315126l-.0788.157564v.157563h-.0788v.157563h-.0788v.157563h-.0788v.157563h-.15756v.157563h-.15756v.157564h-.15757l-.0788.157563h-.23634v.157563h-.39397l-.0788.157563h-4.41177l-.0788-.07878h-.23635v-.07878h-.15756v-.07878h-.15756v-.07878h-.0788l-.0788-.07878h-.0788v-.07878h-.0788v-.07878h-.0788v-.07878h-.0788v-.07878h-.0788v-.07878h-.0788v-.157563h-.0788v-.07878l-.0788-.07878v-.07878l-.0788-.07878v-.157563h-.0788v-.315127h-.0788v-3.623952h.0788v-.315127h.0788v-.157563l.0788-.07878v-.07878l.0788-.07878v-.07878h.0788v-.07878l.0788-.07878v0l.0788-.07878v-.07878h.0788v-.07878h.0788v-.07878h.0788l.0788-.07878h.0788v-.07878h.15757v-.07878h.0788l.0788-.07878h.15756v-.07878h.31513v-.07878h4.01786zm12.92018 0h.47269v.157563h.31513l.0788.157563h.15756l.0788.157563h.15757v.157564h.15756v.157563h.0788v.157563h.15756v.157563h.0788v.315126h.0788v.157564l.0788.157563v3.623952h-.0788V18.317069h-.0788v.157563h-.0788v.157563h-.0788v.157563h-.0788v.157563h-.15756v.157563h-.15757v.157564h-.15756v.157563h-.31513v.157563h-.3939l-.0788.157563h-4.41177v-.07878h-.23635l-.0788-.07878h-.15756v-.07878h-.15757v-.07878h-.0788v-.07878h-.0788l-.0788-.07878h-.0788v-.07878h-.0788v-.07878h-.0788v-.07878l-.0788-.07878v0l-.0788-.07878v-.07878h-.0788v-.157563h-.0788v-.157563h-.0788v-.236345h-.0788v-.393908l-.0788-.07878v-3.151264h.0788v-.472689h.0788v-.157563l.0788-.07878v-.157563h.0788v-.07878l.0788-.07878v-.07878h.0788v-.07878h.0788v-.07878l.0788-.07878v0l.0788-.07878v0l.0788-.07878h.0788v-.07878h.0788v-.07878h.15757v-.07878h.0788l.0788-.07878h.15756v-.07878h.31513v-.07878h4.01786z"
   id="path2" />
  <path
   fill="none"
   stroke="#000"
   stroke-width="2.5"
   stroke-linecap="round"
   stroke-linejoin="round"
   stroke-miterlimit="10"
   d="m169.9716 1.3790292 7.09034 3.1512631h11.81724v.078782h.23635v.1575631h.0788l.0788.078782h.0788v.078782h.0788v.078782h.0788s0 0 0 0l.0788.078781s0 0 0 0v.078782h.0788v.078782h.0788v.157563h.0788v.157564h.0788v.157564l.0788.078781v.315128l-.55147 11.5808926v.31512h-.0788V18.238284h-.0788v.15756h-.0788v.07878h-.0788v.07878l-.0788.07878s0 0 0 0v.07878h-.0788s0 0 0 0l-.0788.07878h-.0788v.157563h-.0788l-.0788.07878h-.0788v.07878h-.31512l-.0788.07878h-76.5757l-.0788-.07878h-.0788l-.0788-.07878h-.0788v-.07878h-.0788l-.0788-.07878v0s0 0 0 0a2.7573552 2.7573552 0 0 1-.15756-.157564v0-.07878h-.0788v-.07878h-.0788v-.07878 0-.07878h-.0788v-.07878 0-.07878 0-.07878h-.0788v-.07878 0-.07878 0-.07878 0-.07878 0l-.63006-11.6596776v0-.078781 0-.078782 0-.078782 0-.078782 0-.078782 0-.078781 0-.078782h.0788v-.078782 0-.078782h.0788v-.078782 0-.078781h.0788v-.078782h.0788v-.07878h.0788v-.078781h.0788v-.078781h.0788v-.078782h.0788v-.078782h.15757l.0788-.078782h.15756v-.078782h11.81724l7.09034-3.2300447M297.91288 27.928421H2.0880611"
   id="path4" />
  <path
   fill="none"
   stroke="#000"
   stroke-width="2.5"
   stroke-linecap="round"
   stroke-linejoin="round"
   stroke-miterlimit="10"
   d="M3.5849111 22.019803h-.3151263l-.078782-.07878h-.1575627l-.078782-.07878h-.1575628v-.07878h-.1575631v-.07878h-.078782l-.078782-.07878h-.078782v-.07878h-.078781v-.07878h-.078782l-.078782-.07878h-.07878v-.07878 0l-.078782-.07878h-.078782v-.07878 0l-.078782-.07878v0-.07878h-.078782v-.07878h-.078782v-.07878 0-.07878h-.078782v-.07878 0-.07878h-.078779v-.07878 0-.07878h-.078782v-.07878 0-.157564 0l-.078782-.07878v0-.07878 0-.07878 0-.07878 0-.07878l-.078782-.07878v0-.07878 0-.07878 0-6.932779l.078782-.157563v-.787861l.078782-.157563v-.393908l.078782-.157563v-.236345l.078782-.157563v-.157563l.078781-.157563v-.07878l.078782-.157563v-.1575654l.0787812-.1575631v-.0787816l.0787816-.1575632v-.1575631l.0787816-.1575632v-.0787816l.0787815-.1575631.0787816-.1575632v-.0787816l.0787816-.1575631.0787816-.1575632.0787815-.1575631.0787816-.0787816v-.1575632l.078782-.1575631.078782-.078782.078782-.1575632.078782-.1575631.078782-.078782.078782-.1575631.078782-.1575632.078781-.078782.078782-.1575631.078782-.1575632.078782-.078782.078782-.1575631.078782-.078782.078782-.1575632.078782-.078781.078782-.1575632.1575631-.078782.078782-.1575631.078782-.078782.078782-.1575632.078781-.078782.1575632-.1575631.078782-.078782.078782-.1575631.1575631-.078782.078782-.078782.078782-.1575632.1575631-.078781.078782-.1575632.1575632-.078782.078781-.078781.1575632-.078782.078782-.1575632.1575631-.078782.078782-.078782.1575632-.078782.078781-.078782.1575632-.1575632.078782-.078781.1575631-.078782.078782-.078782.1575632-.078782.1575631-.078782.078782-.078782.1575632-.078782.1575631-.078782.078782-.078782.1575632-.078781.078781-.078782.1575632-.078782h.1575632l.1575631-.078782.078782-.078782.1575631-.078781.1575632-.078782h.078782l.157553-.078772.1575632-.078782h.1575631l.078782-.078782.1575632-.078782h.1575631l.078782-.078782h.1575624l.1575631-.07878.1575632-.078782h.2363446l.157563-.078782h.157563l.07878-.078782h.315126l.157563-.078782h.236345l.157563-.078782h.393908l.157563-.078782H288.61666l.15756.1575632h.63025l.15757.1575632h.55147l.15756.1575631h.23635l.15756.1575632h.31513l.0788.1575631h.31512l.15757.1575632h.23634l.15756.1575631h.0788l.15756.1575632h.23634l.15757.1575632h.15756l.0788.1575631h.15757l.15756.1575632h.0788l.15756.1575631h.0788l.15757.1575631h.15756l.0788.1575631.15757.1575632h.0788l.15756.1575632h.0788l.15757.1575631.0788.1575632h.15756l.0788.1575631h.15756l.0788.2363448h.0788l.15756.2363447h.0788l.15757.1575632.0788.1575631h.0788l.0788.2363447h.15756l.0788.2363448h.0788l.0788.2363447h.15756l.0788.2363448h.0788l.0788.2363447h.0788l.0788.2363447h.0788l.0788.2363449.0788.1575631h.0788l.0788.2363448.0788.1575631h.0788l.0788.2363447.0788.1575632h.0788l.0788.2363447v.1575645h.0788l.0788.2363447.0788.1575632v.1575631h.0788l.0788.2363448v.1575631h.0788l.0788.2363448v.1575631l.0788.1575632v0l.0788.2363447v.1575634l.0788.157563v0l.0788.236345v.315126h.0788v.393908l.0788.157563v.393908h.0788v.945379h.0788v7.090342h-.0788v.472689h-.0788V20.5229521h-.0788v.157563h-.0788v.157563h-.0788l-.0788.157563h-.0788v.157563h-.0788l-.0788.157564h-.0788l-.0788.157563h-.15756v.157563h-.15756l-.0788.157563h-.23635v.157563h-.47269v.157563H100.64381V12.644795H79.766697v9.453789H3.6636927ZM5.475669 46.520874h.078782l.078782.236344h.078781l.078782.157564.078782.157563h.078782l.078781.157563h.078782l.078782.236345h.078782l.078782.157563h.1575631l.078782.157563.078782.157563h.078782l.078782.157563h.1575632l.078782.157563h.078781l.078782.157564h.1575632l.078782.157563h.078781l.1575632.157563h.078782l.078782.157563h.2363394l.1575631.157563h.078782l.1575632.157563h.2363447l.078782.157563h.2363447l.1575632.157564h.3151263l.1575632.157563h.4726885l.157563.157563h.866598l.157563.157563H288.69544l.15756-.07878h.47269l.15757-.07878h.23634l.15756-.07878h.23635l.0788-.07878h.15756l.15757-.07878h.0788l.15756-.07878h.0788l.15757-.07878.0788-.07878h.15756l.0788-.07878.15757-.07878h.0788l.15756-.07878.0788-.07878.15756-.07878.0788-.07878h.0788l.15756-.07878.0788-.07878.15757-.07878.0788-.07878.0788-.07878.15756-.07878.0788-.07878.0788-.07878.0788-.07878.15756-.07878.0788-.07878.0788-.07878.0788-.157563.0788-.07878.15756-.07878.0788-.07878.0788-.07878.0788-.157564.0788-.07878.0788-.07878.0788-.07878.0788-.157563.0788-.07878.0788-.07878.0788-.236344.0788-.07878"
   id="path6" />
  <path
   fill="none"
   stroke="#000"
   stroke-width="2.5"
   stroke-linecap="round"
   stroke-linejoin="round"
   stroke-miterlimit="10"
   d="M9.966219 32.34019h-.4726895l-.1575632.157563h-.9453789l-.078782.157563h-.551471l-.078782.157563h-.5514703l-.078781.157563h-.3151268l-.1575632.157563h-.2363447l-.078782.157563h-.3151259l-.1575632.157564h-.1575631l-.078782.157563h-.1575628l-.078782.157563h-.1575627l-.1575632.157563h-.078781l-.078782.157563h-.1575633l-.1575631.157563h-.078782l-.078782.157564h-.078782l-.078782.157563h-.1575615l-.078782.157563h-.078782l-.078781.157563h-.078782l-.078782.157563h-.078781l-.078782.236345h-.078782l-.078782.157563h-.078782v.157563h-.078782l-.078782.157563h-.078779l-.078782.236345h-.078782v.157563h-.078782l-.078782.157563-.078782.157564v0l-.078782.157563-.078782.157563v0l-.078782.157563-.078781.157563v0l-.078782.157563-.078782.157564v0l-.078782.236344v0l-.0787815.236345v0l-.078782.236345v0l-.078782.236345v0l-.078782.236344v.236345h-.078782v.236345l-.078782.157563v.236345l-.078782.157563v.393908l-.078782.157563v.393908l-.078782.157563V41.557634l-.078782.315127v2.757355l.078782.157563v.315126h.078782v.157563h.078782v.157564h.078782v.157563h.078782v.157563h.1575632v.157563h.1575632v.157563h.1575631l.078782.157563h.2363447v.157564h.4726895l.078782.157563H296.96751l.0788-.07878h.23634l.0788-.07878h.15757v-.07878h.15756v-.07878h.0788l.0788-.07878h.0788v-.07878h.0788v-.07878h.0788v-.07878h.0788v-.157563h.15756v-.07878 0-.07878h.0788v-.07878 0l.0788-.07878v0-.07878 0l.0788-.07878v0-.07878 0-.07878h.0788v-.157563 0-.07878 0-.07878 0-.07878h.0788v-.07878 0-.07878 0-2.363447l-.0788-.315126v-1.181724l-.0788-.157563v-.393942l-.0788-.157563v-.393908l-.0788-.157563v-.236345l-.0788-.157563v-.157563l-.0788-.07878v-.236345l-.0788-.157563v-.07878l-.0788-.157564v-.07878l-.0788-.157563v-.07878l-.0788-.157563v-.07878l-.0788-.157563-.0788-.07878v-.157564l-.0788-.07878v-.07878l-.0788-.157563-.0788-.07878v-.07878l-.0788-.157563-.0788-.07878v-.07878l-.0788-.157564-.0788-.07878-.0788-.07878v-.07878l-.0788-.07878-.0788-.157563-.0788-.07878-.0788-.07878-.0788-.07878v-.07878l-.0788-.07878-.0788-.07878-.0788-.07878-.0788-.157563-.0788-.07878-.0788-.07878-.0788-.07878-.0788-.07878-.0788-.07878-.0788-.07878h-.0788l-.0788-.07878-.0788-.07878-.0788-.07878-.0788-.07878-.15757-.07878-.0788-.07878-.0788-.07878h-.0788l-.0788-.07878-.0788-.07878-.15757-.07878-.0788-.07878h-.0788l-.0788-.07878-.15756-.07878-.0788-.07878h-.0788l-.15756-.07878-.0788-.07878h-.0788l-.15757-.07878h-.0788l-.0788-.07878-.15756-.07878h-.0788l-.15756-.07878h-.0788l-.15756-.07878h-.0788l-.15757-.07878h-.0788l-.15756-.07878h-.23635l-.0788-.07878h-.15756l-.15757-.07878h-.23634l-.15756-.07878h-.39391l-.0788-.07878h-.47269l-.0788-.07878h-.8666l-.31513-.07878H10.123782Zm36.239526-10.241606V1.3790292m-4.332987 0h1.024161v.2363447h.393908v.1575631h.236344l.07878.1575632h.157563v.1575632h.07878l.07878.1575631h.07878v.1575632h.07878v.1575631h.07878v.1575632h.07878v.1575631h.07878v.3151264h.07878V19.262448l-.07878.157563v.315126l-.07878.157563v.157563l-.07878.157563v.157564h-.07878v.157563h-.07878v.157563h-.07878v.157563h-.07878v.157563h-.157564v.157563h-.07878v.157564h-.157563l-.07878.157563h-.157563v.157563h-.236345v.157563h-.393908v.157563h-.945378l-.07878.157563h-.07878M2.0880611 37.618555V21.310769M36.594392 49.987263v-3.466389M253.7952 22.098584V1.3790292m4.33299 0h-1.02416l-.0788.1575631h-.31513l-.0788.1575632h-.15757l-.0788.1575631h-.15756v.1575632h-.15756v.1575631h-.0788v.2363448h-.0788l-.0788.1575631v.1575632h-.0788v.1575631h-.0788v.3151264h-.0788V19.420011h.0788v.472689h.0788v.315126h.0788v.157564h.0788v.157563h.0788v.157563h.0788v.157563h.0788v.157563h.0788l.0788.157563h.0788v.157564h.15757l.0788.157563h.15756v.157563h.23635v.157563h.3939v.157563h.94538v.157563h.15757m39.39078 15.519971V21.310769M187.0672 17.056563h-74.21224V6.8149581h74.21224zm76.33935 32.9307v-3.466389"
   id="path8" />
  <path
   d="m529.05044 326.75045-3.3-.3-.2.3zm259.7-7.2.2-.3v-.1l-.2.3z"
   id="path10" />
  <path
   fill="none"
   stroke="#000"
   stroke-width="2.60044"
   stroke-linecap="round"
   stroke-linejoin="round"
   stroke-miterlimit="10"
   d="M43.762765 1.6153462h.472685l.15756-.078782h.315121l.157563-.078778h.472677l.157563-.078783H255.05128l.15759.078782h.31513l.15752.078778h.15757l.15763.078781h.47263v-.078786h.31516l.0791-.078777h.39393l.0788-.078781h31.1182l.0786.078781h.39393v.1575604h.31512l.15754.078779h.079l.15749.078781h.31513l.079.078782h.15758l.1576.078777.0791.078783h.15752l.15762.07878h.15753l.0791.078781.15754.078782h.15759l.15743.1575582h.0791l.15756.078781h.15757l.079.1575611h.15754l.15762.078778.0787.078782.15752.078778.15763.078781.0786.078782.15761.07878.15757.078781.079.078782.1576.078779.15751.07878.079.078778.15756.078781.0788.078781.15757.1575602h.0789l.15759.15756.0786.078781.15758.078778.0791.157561h.15756l.0791.1575603.15758.078781.0791.1575607.15756.07878v0l.15752.1575608.15761.078779v.1575765l.15755.078779.15756.1575603v.078781l.31514.078781.0786.1575602.0788.078779.15758.1575597v.1575565l.15753.078779.0787.1575597.0787.078782.0788.1575607.079.078778.079.1575606.0786.1575604.0789.078778.0792.1575605.079.1575604.0785.078781.079.1575607.079.1575604v.078778l.15676.1575591v.1575121l.079.078781.0791.1575558v.1576002l.15755.078766v.3151066l.15753.1575671v.2363369l.0791.1575608v.1575552l.0786.078774.0785.1575648v.3939001h.079v.157554l.0785.157567v.236346l.079.157563v.23634l.0789.157554v.472691l.079.157565v8.271695h-.079v.236305h-.23641v.07877l-.079.07877v.07877l-.0789.07875v.07874h-.0787v.07874h-.0788v.07877l-.079.07877v.157561h-.15776v16.543801l.0785.07873v.157537l.0788.15757v.07875l.079.157558v.157519l.0789.07873v.157595l.079.157556v.315125l.15762.07875v0l.0785.157559v.63022l.0794.157565v.393893l.0787.157563v4.253945h-.0787V45.3374212h-.15722V45.5736912l-.079.07875v.07877h-.0789v.07875h-.0788v.07873h-.079v.07878h-.079v.07875h-.079v.07875h-.1584v.07875h-.15691l-.0785.07875h-.079l-.079.07877h-.15758l-.079.07874h-2.67935l-.0786.15756v.07877l-.15763.07875v.15756h-.0786l-.079.157562-.079.07875-.0792.07878-.0787.07873-.079.07875-.079.157561v0l-.079.157559h-.0787l-.0791.157562h-.0791l-.0788.157562h-.0786l-.15757.157563v0l-.15747.157561v0l-.0792.15755h-.0791l-.15756.07877v.07874l-.15755.07876-.0787.07875h-.15757l-.0791.157564h-.0786l-.15759.07875h-.079l-.0786.07878-.15758.07875h-.079l-.0786.07875-.1576.07875h-.079l-.15754.07875h-.0791l-.15753.07875h-.079l-.15754.157557h-.15777l-.0791.07877h-.23614l-.15757.07874h-.15795l-.0789.07877h-.31513l-.15753.07875H10.438726l-.07874-.07875h-.31512l-.1575639-.07849h-.157571l-.078774-.07875h-.078742l-.1575592-.07874h-.07875l-.1575757-.07837h-.07879l-.1575608-.07877v0l-.1575968-.1568402h-.3151239l-.0787737-.157249h-.1575868l-.0787943-.157348h-.1575613l-.078781-.07878-.078781-.07875h-.157559v-.157793h-.1575603l-.07878-.07877-.1575602-.07875v-.07875l-.1575603-.07877-.078782-.07875-.078778-.07875-.078781-.07875-.1575603-.07875v-.07873l-.1575613-.07887v-.07873l-.1575662-.078656v-.07877l-.1575554-.079015v-.315151h-.1575594v-.157615h-.1575603v-.157557l-.078782-.07877-.078778-.07875-.078779-.157556h-.0787825v-.157601l-.1575598-.07879H2.9546082v-.07879h-.3939025v-.0788h-.1575598v-.07877H2.245586v-.07875h-.078782l-.078781-.07873h-.078782v-.07877h-.0787773a33.481596 33.481596 0 0 1-.1575591-.236447h-.07878l-.078778-.07877v0-.07875h-.078782v-.07875 0-.07875h-.078777v-.07877 0-.07874h-.078784v-.07874 0-.07878 0-.157563 0l-.0787836-.07875v0-.07875 0-.07875 0-.07875 0-.07875 0-.07875 0-4.096572l.078782-.157583v-.393921l.078781-.157562v-.236411l.078778-.157539v-.157557l.078782-.157565v-.157543l.078778-.157565v-.07875l.078781-.157598v-.157545l.078782-.07875v-.157527l.078778-.15756v-.07875l.078781-.157549V21.310803v0l-.078778-.07873v0l-.078778-.07873v0-.07877h-.078782v-.07877h-.078783v-.07877 0-.07877h-.078778v-.07876 0l-.078783-.07873v0-.07874 0-.07877h-.078776v-.07874 0-.07875 0l-.07878-.07891v0-.07875 0-.07877 0-.07877 0l-.078779-.07874v0-.07875 0-.07877 0-.07877 0-.07875 0-.07874 0-8.114361l.0787821-.157592v-.394006l.07878-.15753v-.07875l.078778-.157489v-.31503l.078782-.07877v-.1580777l.078778-.157508v-.1576695l.078782-.078774v-.1576527l.0787776-.1575568.0787776-.1575585v-.0787343l.0787885-.1577436v-.1573953l.1575567-.1575521v-.078758l.0787834-.1575868v-.1578466l.1575534-.07878v-.1575615l.078782-.1575606.078782-.078783.078782-.1575602v-.1575624l.1575541-.0787811v-.1575601l.1575609-.1575607V6.89362l.1575623-.1575585v-.1575608l.1575599-.0787808.078776-.1575602.0787785-.0787784.0787784-.1575608.0787776-.0787776.1575609-.1575611v-.1575631l.1575673-.078781.07878-.1575604.078781-.078779.1575606-.078783.078782-.1575604.07878-.078778.15756-.1575602v-.07878l.157557-.1575588h.1575588l.078781-.1575604.07878-.1575603h.1575652l.0787769-.1575621.1575608-.0787849.0787816-.1575602h.15756l.078781-.1575599.1575605-.07878.078782-.078781.1575601-.1575595h.078786l.1575563-.1575595h.15756l.078781-.1575602.1575607-.078781.078777-.078778.1575605-.07878.1575608-.078779h.078774l.1575696-.1575636h.1575607l.078781-.1575612h.1575604l.1575615-.078778.078778-.078782h.1575588l.1575589-.1575599h.1575655l.078734-.07878h.1575579l.1575774-.1575627h.3151223l.1575616-.078781.1575585-.078778h.07875l.157564-.078781h.1575615l.1575574-.078782h.07877l.157561-.078779h.315122l.07875-.078782h.315121l.157539-.078781h.236343l.157578-.078779h.630245l.15755-.0787815h30.803067V1.379h.315126v.2363585h.157561l.157559.078781v0z"
   id="path12" />
  <path
   d="m529.05044 326.75045-3.3-.3-.2.3zm259.7-7.3.2-.2v-.1z"
   id="path14" />
<path
   style="fill:#b3b3b3;stroke-width:0.244499"
   d="M 47.555012,11.735941 V 2.8117359 l 37.958435,0.00374 c 24.596763,0.00243 37.829333,0.087174 37.591683,0.2407548 -0.21179,0.1368715 -2.98548,0.2385927 -6.56479,0.2407548 l -6.19804,0.00374 -0.8313,0.8312958 c -0.9826,0.9825988 -0.96943,0.7386058 -0.49901,9.2496037 0.29561,5.348215 0.32969,5.581892 0.90432,6.200332 0.32843,0.353463 0.81719,0.733679 1.08613,0.844923 0.28357,0.117291 -1.48826,0.208774 -4.2176,0.217761 l -4.7066,0.0155 v -4.240835 c 0,-3.79794 -0.0467,-4.283093 -0.44713,-4.645476 -0.4023,-0.364081 -1.56559,-0.404643 -11.605086,-0.404643 -10.781317,0 -11.166508,0.01596 -11.411066,0.472924 -0.146105,0.273004 -0.2531,2.236796 -0.2531,4.645477 v 4.172553 H 62.958435 47.555012 Z"
   id="path96" /><path
   style="fill:#b3b3b3;stroke-width:0.244499"
   d="M 114.30318,11.98044 V 8.190709 H 150 185.69682 v 3.789731 3.789731 H 150 114.30318 Z"
   id="path135" /><path
   style="fill:#b3b3b3;stroke-width:0.244499"
   d="m 188.7805,20.492009 c 0.28404,-0.05585 0.8259,-0.424545 1.20412,-0.819324 0.76856,-0.802202 0.85131,-1.507646 1.22155,-10.4137112 l 0.17412,-4.1884589 -0.86651,-0.9460153 -0.86651,-0.9460155 -6.43732,-0.132005 c -3.54054,-0.072603 10.58895,-0.155121 31.39885,-0.183374 l 37.83619,-0.051369 v 8.9242049 8.924206 h -16.47922 -16.47922 l 0.8313,-0.831296 0.83129,-0.831296 v -2.868441 -2.868441 l -0.87315,-0.82349 -0.87315,-0.823491 h -2.80647 c -4.4534,0 -4.98268,0.507752 -4.98268,4.780034 v 2.603829 l 0.8313,0.831296 0.83129,0.831296 h -3.4315 -3.43151 l 0.67385,-0.530049 c 0.96919,-0.762363 1.34809,-1.884706 1.34809,-3.993179 0,-2.108473 -0.3789,-3.230815 -1.34809,-3.993178 -0.60373,-0.474893 -0.96936,-0.529881 -3.51374,-0.528438 -2.39514,0.0014 -2.95217,0.07563 -3.55689,0.474268 -1.1547,0.761183 -1.34309,1.353857 -1.35257,4.255172 l -0.009,2.652812 0.83129,0.831296 0.8313,0.831296 -6.0269,-0.0333 c -3.31479,-0.01831 -5.79449,-0.07899 -5.51045,-0.134841 z"
   id="path213" /><path
   style="fill:#b3b3b3;stroke-width:0.244499"
   d="M 3.0900256,44.891584 C 2.8320032,44.728107 2.7770462,44.054874 2.8458359,41.900218 2.9257572,39.396896 3.007672,38.973609 3.6677908,37.652838 4.5411341,35.905446 5.8955763,34.791437 7.9013291,34.170812 9.2205641,33.762611 16.418383,33.740831 150,33.740831 c 132.50496,0 140.78836,0.02457 142.06939,0.421469 1.48917,0.46138 3.1766,1.566246 3.76604,2.465867 1.13298,1.729117 1.85887,7.990853 0.96609,8.333449 -0.61345,0.235406 -293.3395707,0.165609 -293.7114944,-0.07003 z"
   id="path252" /><path
   style="fill:#b3b3b3;stroke-width:0.0864434"
   d="m 3.4145132,25.025356 v -1.642424 l 38.3592458,-3.46e-4 c 38.123944,-3.45e-4 38.360975,-0.0014 38.640978,-0.172096 0.154952,-0.09448 0.359028,-0.298552 0.453504,-0.453505 0.165251,-0.271034 0.171786,-0.443381 0.172097,-4.539067 l 3.23e-4,-4.257313 h 9.162998 9.162997 v 4.257336 c 0,4.095686 0.0068,4.268033 0.1721,4.539067 0.09447,0.154952 0.29855,0.359028 0.453508,0.453504 0.279926,0.170676 0.511986,0.171776 36.307006,0.172097 l 36.02559,3.23e-4 v 1.642424 1.642424 H 87.869687 3.4145132 Z"
   id="path447" /><path
   style="fill:#b3b3b3;stroke-width:0.0864434"
   d="m 3.4145132,31.350791 v -2.08971 H 87.869687 172.32486 v 0.907565 0.907564 L 90.657486,31.1056 C 31.659626,31.12683 8.8101463,31.16148 8.3417854,31.230445 6.6548951,31.47882 4.6319414,32.348935 3.6090108,33.266112 L 3.4145132,33.4405 Z"
   id="path486" /><path
   style="fill:#b3b3b3;stroke-width:0.0432217"
   d="M 11.547811,48.61761 C 11.532191,48.60199 11.32959,48.57461 11.097585,48.55677 10.541986,48.514031 9.8823964,48.342089 9.3555753,48.102659 9.17623,48.02115 9.010907,47.954028 8.9881909,47.953499 c -0.022716,-5.28e-4 -0.089926,-0.03899 -0.1493561,-0.08548 -0.107301,-0.08393 -0.015336,-0.08453 13.1934192,-0.08548 l 13.301474,-9.61e-4 v 0.432217 0.432217 h -11.87876 c -6.533318,0 -11.891539,-0.01278 -11.907157,-0.0284 z"
   id="path525" /><path
   style="fill:#b3b3b3;stroke-width:0.0432217"
   d="m 37.883808,48.213791 v -0.432217 h 29.671687 29.671688 v 0.432217 0.432217 H 67.555495 37.883808 Z"
   id="path564" /><path
   style="fill:#b3b3b3;stroke-width:0.0305623"
   d="M 264.68521,48.227384 V 47.78423 h 13.31499 c 7.32325,0 13.30927,0.0056 13.30227,0.01242 -0.0522,0.05091 -0.70157,0.34751 -0.9507,0.434226 -0.169,0.05883 -0.33895,0.127709 -0.37766,0.153073 -0.10171,0.06664 -0.77332,0.219164 -1.12496,0.255479 -0.19884,0.02054 -4.35652,0.03111 -12.23258,0.03111 h -11.93136 z"
   id="path603" /><path
   style="fill:#b3b3b3;stroke-width:0.0611247"
   d="m 215.86186,25 v -1.619804 h 40.31173 40.31174 V 25 26.619804 h -40.31174 -40.31173 z"
   id="path642" /><path
   style="fill:#b3b3b3;stroke-width:0.0611247"
   d="m 296.39347,33.343243 c -0.049,-0.07926 -1.33972,-0.916574 -1.61963,-1.050674 -1.38635,-0.664167 -2.89054,-1.045387 -4.54679,-1.152336 -0.50311,-0.03249 -16.18236,-0.05626 -37.61397,-0.05702 l -36.75122,-0.0013 V 30.13448 29.187048 h 40.31173 40.31174 v 2.108802 c 0,1.159841 -0.0121,2.108802 -0.027,2.108802 -0.0148,0 -0.044,-0.02763 -0.0649,-0.0614 z"
   id="path681" /><path
   style="fill:#b3b3b3;stroke-width:0.0611247"
   d="m 172.34108,25 v -1.619804 h 21.76039 21.76039 V 25 26.619804 h -21.76039 -21.76039 z"
   id="path720" /><path
   style="fill:#b3b3b3;stroke-width:0.0611247"
   d="m 172.34108,30.165122 v -0.916784 l -21.5923,-0.01545 c -11.87577,-0.0085 -2.08359,-0.02229 21.76039,-0.03065 l 43.35269,-0.01519 v 0.947432 0.947433 h -21.76039 -21.76039 z"
   id="path759" /><path
   style="fill:#b3b3b3;stroke-width:0.122249"
   d="m 201.14377,18.579902 c -0.46585,-0.253078 -0.59365,-0.765819 -0.59365,-2.381858 0,-2.503342 0.0741,-2.567237 2.97611,-2.567237 h 2.01026 l 0.37968,0.354671 0.37967,0.354671 v 1.79273 c 0,1.050404 -0.0547,1.894929 -0.13209,2.039542 -0.25277,0.472318 -0.83425,0.59319 -2.82853,0.587966 -1.38471,-0.0036 -1.95188,-0.05034 -2.19145,-0.180485 z"
   id="path798" /><path
   style="fill:#b3b3b3;stroke-width:0.122249"
   d="m 214.04243,18.548626 c -0.46144,-0.373773 -0.53387,-0.690838 -0.53387,-2.336793 0,-2.521974 0.0654,-2.581026 2.85883,-2.581026 1.04114,0 2.03145,0.05265 2.2007,0.116997 0.55523,0.211096 0.68619,0.684052 0.68619,2.478093 0,2.447571 -0.11093,2.540759 -3.0196,2.536666 -1.64528,-0.0023 -1.97014,-0.03402 -2.19225,-0.213937 z"
   id="path837" /><path
   style="fill:#b3b3b3;stroke-width:0.00764059"
   d="m 138.68811,20.641045 v -0.206296 h 9.3559 9.3559 v 0.206296 0.206296 h -9.3559 -9.3559 z"
   id="path915" /><path
   style="fill:#b3b3b3;stroke-width:0.0108054"
   d="m 109.15097,20.726467 v -0.111788 l 0.24042,-0.0073 c 1.02679,-0.03127 1.67027,-0.09422 1.64461,-0.160882 -0.003,-0.0074 -0.0428,-0.03116 -0.0888,-0.05285 -0.30249,-0.142647 -0.84419,-0.592427 -1.14495,-0.950649 -0.37499,-0.446655 -0.46929,-0.943983 -0.62408,-3.291317 -0.015,-0.227179 -0.0272,-0.488535 -0.0272,-0.580792 V 15.40315 h 0.053 0.0531 l 0.007,0.08915 c 0.0226,0.301673 0.11709,2.159277 0.1249,2.455532 0.011,0.418352 0.0152,0.445268 0.11361,0.737182 0.0737,0.2185 0.17278,0.433553 0.26281,0.570274 0.0833,0.126428 0.66982,0.71577 0.80096,0.804752 0.0868,0.05888 0.53292,0.282402 0.62485,0.313064 0.0374,0.01246 0.10058,0.0309 0.14047,0.04097 0.0679,0.01714 0.84196,0.01851 12.17731,0.0214 l 12.10477,0.0031 v 0.199862 0.199862 H 122.3822 109.15097 Z"
   id="path954" /><path
   style="fill:#b3b3b3;stroke-width:0.0216108"
   d="m 157.40257,20.638355 v -0.205303 h 15.48972 c 10.7239,0 15.51294,-0.007 15.56521,-0.02262 0.0415,-0.01244 0.16108,-0.03687 0.26568,-0.05429 0.22747,-0.03789 0.4024,-0.105643 0.57114,-0.221222 0.3276,-0.224384 0.33002,-0.225716 0.33002,-0.181816 0,0.07541 -0.55966,0.442619 -0.76862,0.504319 -0.0527,0.01556 -0.0958,0.03479 -0.0958,0.04273 0,0.02255 0.15456,0.03856 0.52406,0.0543 l 0.34037,0.0145 v 0.137357 0.137357 h -16.11088 -16.11089 z"
   id="path993" /><path
   style="fill:#b3b3b3;stroke-width:0.0864434"
   d="m 124.35599,5.4532503 c 0.0198,-0.019747 1.37074,-0.6421394 3.00206,-1.383094 l 2.96603,-1.3471901 h 19.73633 19.73633 l 3.10098,1.3809437 3.10099,1.3809437 -25.83937,0.00215 c -14.21165,0.00118 -25.82316,-0.014006 -25.80335,-0.033753 z"
   id="path1032" /><path
   style="fill:#b3b3b3;stroke-width:0.0152812"
   d="m 188.31568,10.513447 -0.006,-3.9578235 -0.0357,-0.1069682 c -0.0758,-0.2271559 -0.23294,-0.4642658 -0.39542,-0.5966259 l -0.0836,-0.068105 h 0.28593 0.28592 l 0.0881,0.053542 c 0.10835,0.065818 0.17938,0.1432362 0.22795,0.2484359 l 0.037,0.080212 -0.19935,4.1525787 -0.19935,4.152578 z"
   id="path1071" /><path
   style="fill:#b3b3b3;stroke-width:0.0108054"
   d="m 111.43823,9.1712081 c -0.0881,-1.6388359 -0.16281,-3.0023941 -0.16605,-3.0301294 -0.006,-0.048363 -0.004,-0.052647 0.0448,-0.1046327 0.0813,-0.086873 0.13089,-0.098867 0.40909,-0.098867 h 0.22612 l -0.0482,0.056729 c -0.12918,0.1519754 -0.20911,0.3061805 -0.27023,0.5213616 l -0.0246,0.086443 -0.005,2.7743987 -0.005,2.7743987 z"
   id="path1110" /><path
   style="fill:#666666;stroke-width:0.0864434"
   d="M 3.785415,20.71095 C 3.2353964,20.643625 2.874213,20.335732 2.7265443,19.808312 2.6536274,19.547878 2.6346127,18.336139 2.6584976,15.471925 L 2.6916451,11.496968 2.975532,10.50287 C 3.5360442,8.5401 4.6431664,6.6988176 5.9853967,5.4970889 7.5730788,4.0756018 8.9522935,3.3683071 11.107973,2.8701077 l 0.821212,-0.1897905 15.047532,-0.023772 15.047532,-0.023771 0.411705,0.1821167 c 0.706694,0.3126042 0.664404,-0.2682887 0.637034,8.7503061 l -0.02419,7.971005 -0.240432,0.409016 c -0.274906,0.467665 -0.450427,0.584465 -1.056219,0.702863 -0.482742,0.09435 -37.212681,0.15517 -37.966733,0.06287 z"
   id="path296" /><path
   style="fill:#666666;stroke-width:0.0864434"
   d="m 258.68179,20.703187 c -0.11886,-0.03806 -0.32693,-0.07309 -0.46238,-0.07783 -0.49603,-0.01736 -0.84321,-0.267358 -1.08386,-0.780478 l -0.22585,-0.481568 -0.0242,-7.844229 c -0.0242,-7.8429282 -0.0242,-7.8443005 0.16022,-8.2729974 0.17064,-0.3966807 0.21127,-0.4325601 0.54289,-0.4794393 0.19714,-0.027869 7.18531,-0.037326 15.52925,-0.021015 14.27786,0.027911 15.20389,0.038796 15.7327,0.1849284 1.76438,0.4875749 3.30518,1.2178782 4.33541,2.0548858 2.24079,1.8205356 3.17955,3.2024069 3.85427,5.6736025 l 0.22878,0.837917 0.0309,4.106061 0.0308,4.10606 -0.32852,0.452521 c -0.23324,0.32127 -0.41628,0.477833 -0.63108,0.539789 -0.36623,0.105634 -37.35957,0.107389 -37.68931,0.0018 z"
   id="path335" /><path
   style="fill:#b3b3b3;stroke-width:0.0108054"
   d="m 88.166836,48.667618 c 0,-0.01438 0.510857,-0.01621 4.532874,-0.01621 h 4.532875 v -0.43762 -0.437619 h 8.698365 8.69836 v 0.453828 0.453827 h -13.23124 c -11.753893,0 -13.231234,-0.0018 -13.231234,-0.01621 z"
   id="path279" /><path
   style="fill:#b3b3b3;stroke-width:0.0108054"
   d="m 114.62931,48.229999 v -0.453828 h 8.81182 8.81183 v 0.453828 0.453827 h -8.81183 -8.81182 z"
   id="path318" /><path
   style="fill:#b3b3b3;stroke-width:0.0108054"
   d="m 132.25296,48.229999 v -0.453828 h 10.12468 10.12468 v 0.453828 0.453827 h -10.12468 -10.12468 z"
   id="path357" /><path
   style="fill:#b3b3b3;stroke-width:0.0108054"
   d="m 152.50232,48.229999 v -0.453828 h 10.12468 10.12468 v 0.453828 0.453827 H 162.627 152.50232 Z"
   id="path396" /><path
   style="fill:#b3b3b3;stroke-width:0.0108054"
   d="m 177.3764,48.229999 v -0.453828 h 13.23123 13.23124 v 0.453828 0.453827 H 190.60763 177.3764 Z"
   id="path435" /><path
   style="fill:#b3b3b3;stroke-width:0.0108054"
   d="m 214.97926,48.229999 v -0.453828 h 13.23124 13.23124 v 0.453828 0.453827 H 228.2105 214.97926 Z"
   id="path474" /><path
   style="fill:#b3b3b3;stroke-width:0.0108054"
   d="m 241.44174,48.229999 v -0.453828 h 9.40072 9.40071 v 0.453828 0.453827 h -9.40071 -9.40072 z"
   id="path513" /><path
   style="fill:#b3b3b3;stroke-width:0.0108054"
   d="m 203.83887,48.229999 v -0.453828 h 5.5702 5.57019 v 0.453828 0.453827 h -5.57019 -5.5702 z"
   id="path552" /><path
   style="fill:#b3b3b3;stroke-width:0.0152812"
   d="m 260.24603,48.227384 v -0.450795 h 0.95507 0.95507 v 0.450795 0.450794 h -0.95507 -0.95507 z"
   id="path591" /><path
   style="fill:#b3b3b3;stroke-width:0.0152812"
   d="m 172.76131,48.227384 v -0.450795 h 2.30745 2.30746 v 0.450795 0.450794 h -2.30746 -2.30745 z"
   id="path630" /></svg>
