<?xml version="1.0" encoding="UTF-8"?>
<svg version="1.1" viewBox="0 0 300 300" xmlns="http://www.w3.org/2000/svg">
 <path d="m22.541 7.8518c-4.7144 0-8.5098 3.7954-8.5098 8.5098v115.17h-5.67e-4v8.7957h8.7946v-1e-3h254.44v4e-3h8.8022v-8.8022h-5e-3v-115.16c0-4.7144-3.7954-8.5098-8.5098-8.5098h-255.01zm64.882 20.525h125.09c0.19643 0 0.38787 0.01995 0.57285 0.05762 0.18499 0.03766 0.36317 0.09296 0.53297 0.16454s0.33114 0.15919 0.48199 0.26094c0.15086 0.10175 0.29121 0.21809 0.41939 0.34626 0.12818 0.12818 0.24452 0.26854 0.34627 0.41939 0.10175 0.15086 0.18936 0.3122 0.26094 0.482 0.0716 0.1698 0.12689 0.34799 0.16455 0.53297 0.0376 0.18499 0.0576 0.37642 0.0576 0.57285v91.906c0 0.19644-0.02 0.38842-0.0576 0.57342-0.0377 0.18499-0.093 0.36317-0.16455 0.53297-0.0716 0.1698-0.15919 0.33115-0.26094 0.482-0.10175 0.15086-0.21809 0.2912-0.34627 0.41939-0.12818 0.12818-0.26853 0.24396-0.41939 0.34572-0.15086 0.10175-0.31219 0.18937-0.48199 0.26095-0.16979 0.0716-0.348 0.12743-0.53297 0.1651-0.18498 0.0377-0.37642 0.0571-0.57285 0.0571h-125.09c-0.19644 0-0.38842-0.0194-0.57342-0.0571-0.18499-0.0377-0.36317-0.0935-0.53297-0.1651s-0.33114-0.1592-0.482-0.26095-0.2912-0.21753-0.41939-0.34572c-0.12818-0.12818-0.24396-0.26854-0.34572-0.41939-0.10175-0.15086-0.18937-0.3122-0.26094-0.482-0.07158-0.16979-0.12744-0.34799-0.1651-0.53297-0.03766-0.18499-0.05706-0.37698-0.05706-0.57342v-91.906c0-0.19644 0.0194-0.38788 0.05706-0.57285 0.03766-0.18498 0.09352-0.36317 0.1651-0.53297s0.15919-0.33114 0.26094-0.482 0.21753-0.29121 0.34572-0.41939c0.12818-0.12818 0.26854-0.24451 0.41939-0.34626 0.15086-0.10175 0.3122-0.18937 0.482-0.26094 0.1698-0.07158 0.34799-0.12688 0.53297-0.16454 0.18499-0.03767 0.37698-0.05762 0.57342-0.05762zm-50.795 44.271a1.5566 1.5566 0 0 1 1.5568 1.5562 1.5566 1.5566 0 0 1-1.5568 1.5568 1.5566 1.5566 0 0 1-1.5568-1.5568 1.5566 1.5566 0 0 1 1.5568-1.5562zm10.415 0a1.5566 1.5566 0 0 1 1.5568 1.5562 1.5566 1.5566 0 0 1-1.5568 1.5568 1.5566 1.5566 0 0 1-1.5568-1.5568 1.5566 1.5566 0 0 1 1.5568-1.5562zm10.064 0a1.5566 1.5566 0 0 1 1.5568 1.5562 1.5566 1.5566 0 0 1-1.5568 1.5568 1.5566 1.5566 0 0 1-1.5562-1.5568 1.5566 1.5566 0 0 1 1.5562-1.5562zm185.01 0a1.5566 1.5566 0 0 1 1.5568 1.5562 1.5566 1.5566 0 0 1-1.5568 1.5568 1.5566 1.5566 0 0 1-1.5568-1.5568 1.5566 1.5566 0 0 1 1.5568-1.5562zm10.415 0a1.5566 1.5566 0 0 1 1.5568 1.5562 1.5566 1.5566 0 0 1-1.5568 1.5568 1.5566 1.5566 0 0 1-1.5568-1.5568 1.5566 1.5566 0 0 1 1.5568-1.5562zm10.064 0a1.5566 1.5566 0 0 1 1.5568 1.5562 1.5566 1.5566 0 0 1-1.5568 1.5568 1.5566 1.5566 0 0 1-1.5562-1.5568 1.5566 1.5566 0 0 1 1.5562-1.5562zm-225.96 9.6107a1.5566 1.5566 0 0 1 1.5568 1.5562 1.5566 1.5566 0 0 1-1.5568 1.5568 1.5566 1.5566 0 0 1-1.5568-1.5568 1.5566 1.5566 0 0 1 1.5568-1.5562zm10.415 0a1.5566 1.5566 0 0 1 1.5568 1.5568 1.5566 1.5566 0 0 1-1.5568 1.5562 1.5566 1.5566 0 0 1-1.5562-1.5562 1.5566 1.5566 0 0 1 1.5562-1.5568zm10.064 0a1.5566 1.5566 0 0 1 1.5568 1.5568 1.5566 1.5566 0 0 1-1.5568 1.5562 1.5566 1.5566 0 0 1-1.5562-1.5562 1.5566 1.5566 0 0 1 1.5562-1.5568zm185.01 0a1.5566 1.5566 0 0 1 1.5568 1.5562 1.5566 1.5566 0 0 1-1.5568 1.5568 1.5566 1.5566 0 0 1-1.5568-1.5568 1.5566 1.5566 0 0 1 1.5568-1.5562zm10.415 0a1.5566 1.5566 0 0 1 1.5568 1.5568 1.5566 1.5566 0 0 1-1.5568 1.5562 1.5566 1.5566 0 0 1-1.5562-1.5562 1.5566 1.5566 0 0 1 1.5562-1.5568zm10.064 0a1.5566 1.5566 0 0 1 1.5568 1.5568 1.5566 1.5566 0 0 1-1.5568 1.5562 1.5566 1.5566 0 0 1-1.5562-1.5562 1.5566 1.5566 0 0 1 1.5562-1.5568zm-240.04 58.13c-4.721 0-8.5214 3.7991-8.5214 8.5175v134.72c0 4.7187 3.8005 8.5175 8.5214 8.5175h254.98c4.721 0 8.522-3.7991 8.522-8.5175v-134.72c0-4.7187-3.801-8.5175-8.522-8.5175zm245 2.6554h0.23103c0.55002 0 0.99281 0.44279 0.99281 0.99281v11.293c0 0.55002-0.44279 0.99281-0.99281 0.99281h-0.23103c-0.55001 0-0.99281-0.44279-0.99281-0.99281v-11.293c0-0.55002 0.4428-0.99281 0.99281-0.99281zm4.2376 0h0.23103c0.55001 0 0.99281 0.44279 0.99281 0.99281v11.293c0 0.55002-0.4428 0.99281-0.99281 0.99281h-0.23103c-0.55002 0-0.99281-0.44279-0.99281-0.99281v-11.293c0-0.55002 0.44279-0.99281 0.99281-0.99281zm-121.95 2.7585h0.30692c0.55001 0 0.99281 0.44279 0.99281 0.99281v5.697c0 0.55002-0.4428 0.99281-0.99281 0.99281h-0.30692c-0.55002 0-0.99281-0.44279-0.99281-0.99281v-5.697c0-0.55002 0.44279-0.99281 0.99281-0.99281zm-62.638 25.8h125.09c0.19644 0 0.38788 0.0199 0.57286 0.0576s0.36373 0.093 0.53353 0.16455c0.1698 0.0716 0.33115 0.15919 0.482 0.26094 0.15086 0.10175 0.2912 0.21753 0.41939 0.34572 0.12818 0.12818 0.24396 0.2691 0.34572 0.41996 0.10175 0.15086 0.18937 0.31166 0.26095 0.48146 0.0716 0.1698 0.12688 0.34853 0.16454 0.53354 0.0377 0.18498 0.0576 0.37641 0.0576 0.57285v91.906c0 0.19643-0.02 0.38787-0.0576 0.57285-0.0377 0.18499-0.093 0.36374-0.16454 0.53353-0.0716 0.1698-0.1592 0.33115-0.26095 0.482-0.10175 0.15086-0.21753 0.2912-0.34572 0.41939-0.12818 0.12818-0.26854 0.24396-0.41939 0.34573-0.15086 0.10175-0.3122 0.18936-0.482 0.26094-0.16979 0.0716-0.34853 0.12688-0.53353 0.16455-0.18498 0.0377-0.37642 0.0576-0.57286 0.0576h-125.09c-0.19644 0-0.38788-0.0199-0.57285-0.0576-0.18499-0.0377-0.36374-0.093-0.53354-0.16455-0.1698-0.0716-0.33058-0.15919-0.48146-0.26094-0.15086-0.10176-0.29177-0.21753-0.41996-0.34573-0.12818-0.12818-0.24396-0.26853-0.34572-0.41939-0.10175-0.15086-0.18937-0.3122-0.26094-0.482-0.07158-0.16979-0.12688-0.34853-0.16454-0.53353-0.03768-0.18499-0.05762-0.37642-0.05762-0.57285v-91.906c0-0.19644 0.01997-0.38788 0.05762-0.57285 0.03766-0.18499 0.09296-0.36374 0.16454-0.53354s0.15919-0.33058 0.26094-0.48146c0.10175-0.15086 0.21753-0.29177 0.34572-0.41996 0.12818-0.12817 0.26909-0.24395 0.41996-0.34572 0.15086-0.10175 0.31166-0.18937 0.48146-0.26094 0.1698-0.0716 0.34853-0.12689 0.53354-0.16455 0.18499-0.0377 0.37642-0.0576 0.57285-0.0576z" color="#000000" fill="#ff554d" stroke-width=".30000"/>
 <path d="m253.76 179.13a8.3572 8.3572 0 0 0-8.3569 8.3569 8.3572 8.3572 0 0 0 8.3569 8.3575 8.3572 8.3572 0 0 0 8.3575-8.3575 8.3572 8.3572 0 0 0-8.3575-8.3569zm-214.68 10.663c-0.78574 0-1.4183 0.63257-1.4183 1.4183v10.616h-11.256c-0.78574 0-1.4183 0.63256-1.4183 1.4183v12.195c0 0.78574 0.63256 1.4183 1.4183 1.4183h11.256v10.668c0 0.78574 0.63256 1.4183 1.4183 1.4183h12.204c0.78574 0 1.4183-0.63256 1.4183-1.4183v-10.668h10.01c0.78574 0 1.4183-0.63256 1.4183-1.4183v-12.195c0-0.78574-0.63256-1.4183-1.4183-1.4183h-10.01v-10.616c0-0.78573-0.63256-1.4183-1.4183-1.4183zm199.17 5.1896a8.3572 8.3572 0 0 0-8.3569 8.3575 8.3572 8.3572 0 0 0 8.3569 8.3569 8.3572 8.3572 0 0 0 8.3569-8.3569 8.3572 8.3572 0 0 0-8.3569-8.3575zm31.841 0a8.3572 8.3572 0 0 0-8.3575 8.3575 8.3572 8.3572 0 0 0 8.3575 8.3569 8.3572 8.3572 0 0 0 8.3569-8.3569 8.3572 8.3572 0 0 0-8.3569-8.3575zm-16.335 15.962a8.3572 8.3572 0 0 0-8.3569 8.3569 8.3572 8.3572 0 0 0 8.3569 8.3575 8.3572 8.3572 0 0 0 8.3575-8.3575 8.3572 8.3572 0 0 0-8.3575-8.3569zm-19.759 38.283a4.1068 4.1068 0 0 0-4.1071 4.1071 4.1068 4.1068 0 0 0 4.1071 4.1071 4.1068 4.1068 0 0 0 4.1071-4.1071 4.1068 4.1068 0 0 0-4.1071-4.1071zm0 16.181a4.1068 4.1068 0 0 0-4.1071 4.1071 4.1068 4.1068 0 0 0 4.1071 4.1071 4.1068 4.1068 0 0 0 4.1071-4.1071 4.1068 4.1068 0 0 0-4.1071-4.1071z" color="#000000" fill="#31352e" stroke-width=".3000"/>
 <path d="m22.541 7.71c-4.7904 0-8.6516 3.8612-8.6516 8.6516v115.02h-5.67e-4v9.0794h6.6915c-3.8878 0.84945-6.7886 4.2906-6.7886 8.4394v2.84c0 0.33344 0.06108 0.64941 0.09751 0.97286v130.91c0 4.795 3.8666 8.6593 8.6638 8.6593h254.98c4.7973 0 8.6638-3.8646 8.6638-8.6593v-134.72c0-4.14-2.8882-7.5732-6.7636-8.4372h6.7678v-9.0859h-5e-3v-115.02c0-4.7905-3.8612-8.6516-8.6516-8.6516h-255.01zm0 0.28366h255.01c4.6384 0 8.368 3.7296 8.368 8.368v115.3h5e-3v8.5186h-8.5186v-4e-3h-254.72v1e-3h-8.5109v-8.5121h5.67e-4v-115.31c0-4.6384 3.7296-8.368 8.368-8.368zm58.539 13.9c-1.6478 0-2.979 1.3312-2.979 2.979v104.1c0 1.6478 1.3312 2.979 2.979 2.979h138.14c1.6478 0 2.979-1.3312 2.979-2.979v-104.1c0-1.6478-1.3312-2.979-2.979-2.979zm0 0.28477h138.14c1.4951 0 2.6942 1.1991 2.6942 2.6942v104.1c0 1.4951-1.1991 2.6942-2.6942 2.6942h-138.14c-1.4951 0-2.6942-1.1991-2.6942-2.6942v-104.1c0-1.4951 1.1991-2.6942 2.6942-2.6942zm6.3409 6.0561c-0.20607 0-0.40745 0.02085-0.60167 0.06039-0.19416 0.03953-0.38166 0.09762-0.56012 0.17286-0.17836 0.07519-0.34791 0.16736-0.50639 0.27424-0.15863 0.10699-0.30598 0.22898-0.44044 0.36342-0.1346 0.13461-0.25603 0.28202-0.36289 0.44044-0.10688 0.15846-0.19905 0.32802-0.27424 0.50639-0.07513 0.17822-0.13382 0.3657-0.17341 0.56012-0.03958 0.19443-0.05983 0.39531-0.05983 0.6011v91.906c0 0.2058 0.02025 0.40719 0.05983 0.60167 0.03959 0.19443 0.09828 0.38192 0.17341 0.56011 0.07519 0.17837 0.16736 0.34794 0.27424 0.50639 0.10685 0.15843 0.22828 0.30584 0.36289 0.44044 0.13461 0.13461 0.28202 0.25603 0.44044 0.36289 0.15846 0.10687 0.32802 0.19905 0.50639 0.27424 0.17821 0.0751 0.36569 0.13382 0.56012 0.17341 0.19448 0.0396 0.39588 0.0598 0.60167 0.0598h125.09c0.2058 0 0.40668-0.0203 0.6011-0.0598 0.19443-0.0396 0.38192-0.0983 0.56011-0.17341 0.17837-0.0752 0.34791-0.16737 0.50639-0.27424 0.15843-0.10686 0.30585-0.22828 0.44044-0.36289 0.13446-0.13446 0.25645-0.28182 0.36343-0.44044 0.10687-0.15845 0.19905-0.32802 0.27424-0.50639 0.0752-0.17845 0.13332-0.36595 0.17286-0.56011 0.0395-0.19422 0.0604-0.3956 0.0604-0.60167v-91.906c0-0.20607-0.0208-0.40694-0.0604-0.6011-0.0395-0.19416-0.0976-0.38166-0.17286-0.56012-0.0752-0.17836-0.16737-0.34791-0.27424-0.50639-0.10699-0.15862-0.22898-0.30598-0.36343-0.44044-0.13446-0.13446-0.28182-0.25645-0.44044-0.36342-0.15845-0.10688-0.32802-0.19905-0.50639-0.27424-0.17845-0.07523-0.36594-0.13332-0.56011-0.17286-0.19417-0.03953-0.39505-0.06039-0.6011-0.06039zm0 0.28477h125.09c0.18679 0 0.36878 0.01905 0.54459 0.05485s0.34468 0.08831 0.50583 0.15624c0.16123 0.06797 0.31435 0.15102 0.45763 0.24765 0.1431 0.09652 0.27644 0.20719 0.39834 0.3291 0.12189 0.1219 0.23257 0.25524 0.3291 0.39834 0.0966 0.14326 0.17968 0.2964 0.24765 0.45763 0.0679 0.16114 0.12044 0.33001 0.15624 0.50582s0.0548 0.35781 0.0548 0.5446v91.906c0 0.1868-0.0191 0.36941-0.0548 0.54517-0.0358 0.1758-0.0883 0.34467-0.15624 0.50582-0.068 0.16123-0.15102 0.31435-0.24765 0.45763-0.0965 0.14309-0.20719 0.27644-0.3291 0.39834-0.12175 0.12175-0.25505 0.23189-0.39834 0.32854-0.14326 0.0966-0.2964 0.17968-0.45763 0.24764-0.16138 0.068-0.3303 0.12105-0.50583 0.15679-0.17554 0.0357-0.35752 0.0543-0.54459 0.0543h-125.09c-0.18707 0-0.36967-0.0186-0.54517-0.0543-0.17554-0.0357-0.34445-0.0888-0.50582-0.15679-0.16123-0.068-0.31435-0.15102-0.45763-0.24764-0.1433-0.0966-0.27659-0.20679-0.39834-0.32854s-0.23189-0.25505-0.32854-0.39834c-0.09663-0.14326-0.17968-0.2964-0.24765-0.45763-0.06803-0.16138-0.12105-0.3303-0.15679-0.50582-0.03573-0.1755-0.0543-0.3581-0.0543-0.54517v-91.906c0-0.18706 0.01855-0.36907 0.0543-0.5446 0.03574-0.17554 0.08876-0.34445 0.15679-0.50582 0.06797-0.16123 0.15102-0.31435 0.24765-0.45763 0.09665-0.1433 0.20678-0.27659 0.32854-0.39834 0.1219-0.12189 0.25524-0.23257 0.39834-0.3291 0.14326-0.09663 0.2964-0.17968 0.45763-0.24765 0.16114-0.06793 0.33001-0.12044 0.50582-0.15624 0.17576-0.03578 0.35838-0.05485 0.54517-0.05485zm-50.795 43.981c-0.93818-1.25e-4 -1.7018 0.76322-1.702 1.7014-1.25e-4 0.9384 0.76353 1.7021 1.702 1.702 0.9384 1.24e-4 1.7021-0.76356 1.702-1.702-2.1e-4 -0.93818-0.76378-1.7015-1.702-1.7014zm10.415 0c-0.93818-1.25e-4 -1.7018 0.76322-1.702 1.7014-1.25e-4 0.9384 0.76356 1.7021 1.702 1.702 0.93843 1.24e-4 1.7021-0.76356 1.702-1.702-2.07e-4 -0.93818-0.76378-1.7015-1.702-1.7014zm10.064 0c-0.93795 2.1e-4 -1.7012 0.76344-1.7014 1.7014-1.25e-4 0.93818 0.76322 1.7018 1.7014 1.702 0.9384 1.24e-4 1.7021-0.76356 1.702-1.702-2.1e-4 -0.93818-0.76378-1.7015-1.702-1.7014zm185.01 0c-0.93817-1.25e-4 -1.7018 0.76322-1.702 1.7014-1.2e-4 0.9384 0.76356 1.7021 1.702 1.702 0.93844 1.27e-4 1.7021-0.76353 1.702-1.702-2e-4 -0.93818-0.76378-1.7015-1.702-1.7014zm10.415 0c-0.93818-1.25e-4 -1.7018 0.76322-1.702 1.7014-1.2e-4 0.9384 0.76353 1.7021 1.702 1.702 0.93841 1.24e-4 1.7021-0.76356 1.702-1.702-2.1e-4 -0.93818-0.76378-1.7015-1.702-1.7014zm10.064 0c-0.93795 2.1e-4 -1.7012 0.76344-1.7014 1.7014-1.2e-4 0.93818 0.76322 1.7018 1.7014 1.702 0.93844 1.24e-4 1.7021-0.76356 1.702-1.702-2e-4 -0.93818-0.76378-1.7015-1.702-1.7014zm-225.96 0.2903c0.78109-1.05e-4 1.4115 0.63001 1.4117 1.4111 1.05e-4 0.78128-0.63038 1.4117-1.4117 1.4117-0.78128 1.05e-4 -1.4117-0.63038-1.4117-1.4117 1.73e-4 -0.78109 0.63058-1.4112 1.4117-1.4111zm10.415 0c0.78109-1.05e-4 1.4115 0.63001 1.4117 1.4111 1.05e-4 0.78128-0.63038 1.4117-1.4117 1.4117-0.78128 1.05e-4 -1.4117-0.63038-1.4117-1.4117 1.73e-4 -0.78109 0.63058-1.4112 1.4117-1.4111zm10.064 0c0.78106-1.05e-4 1.4115 0.63001 1.4117 1.4111 1.05e-4 0.78128-0.63038 1.4117-1.4117 1.4117-0.78109-1.73e-4 -1.4112-0.63058-1.4111-1.4117 1.73e-4 -0.78089 0.63021-1.4109 1.4111-1.4111zm185.01 0c0.78109-1.05e-4 1.4115 0.63001 1.4117 1.4111 1e-4 0.78128-0.63038 1.4117-1.4117 1.4117-0.78125 1.05e-4 -1.4117-0.63038-1.4117-1.4117 1.7e-4 -0.78109 0.63058-1.4112 1.4117-1.4111zm10.415 0c0.78109-1.05e-4 1.4115 0.63001 1.4117 1.4111 1.1e-4 0.78128-0.63037 1.4117-1.4117 1.4117-0.78128 1.05e-4 -1.4118-0.63038-1.4117-1.4117 1.7e-4 -0.78109 0.63057-1.4112 1.4117-1.4111zm10.064 0c0.78109-1.05e-4 1.4115 0.63001 1.4117 1.4111 1e-4 0.78128-0.63038 1.4117-1.4117 1.4117-0.78105-1.73e-4 -1.4112-0.63058-1.4111-1.4117 1.8e-4 -0.78089 0.63024-1.4109 1.4111-1.4111zm-225.96 9.3202c-0.93818-1.25e-4 -1.7018 0.76322-1.702 1.7014-1.25e-4 0.9384 0.76353 1.7021 1.702 1.702 0.9384 1.25e-4 1.7021-0.76356 1.702-1.702-2.1e-4 -0.93818-0.76378-1.7015-1.702-1.7014zm10.415 0c-0.93818 2.1e-4 -1.7015 0.76378-1.7014 1.702 2.1e-4 0.93795 0.76347 1.7012 1.7014 1.7014 0.93818 1.25e-4 1.7018-0.76322 1.702-1.7014 1.25e-4 -0.9384-0.76353-1.7021-1.702-1.702zm10.064 0c-0.93818 2.1e-4 -1.7015 0.76378-1.7014 1.702 2.07e-4 0.93795 0.76344 1.7012 1.7014 1.7014 0.93818 1.25e-4 1.7018-0.76322 1.702-1.7014 1.25e-4 -0.9384-0.76356-1.7021-1.702-1.702zm185.01 0c-0.93817-1.25e-4 -1.7018 0.76322-1.702 1.7014-1.2e-4 0.9384 0.76356 1.7021 1.702 1.702 0.93844 1.27e-4 1.7021-0.76353 1.702-1.702-2e-4 -0.93818-0.76378-1.7015-1.702-1.7014zm10.415 0c-0.93818 2.1e-4 -1.7015 0.76378-1.7014 1.702 2e-4 0.93795 0.76344 1.7012 1.7014 1.7014 0.93818 1.25e-4 1.7018-0.76322 1.702-1.7014 1.3e-4 -0.9384-0.76356-1.7021-1.702-1.702zm10.064 0c-0.93817 2.1e-4 -1.7015 0.76378-1.7014 1.702 2.1e-4 0.93795 0.76347 1.7012 1.7014 1.7014 0.93818 1.25e-4 1.7018-0.76322 1.702-1.7014 1.3e-4 -0.9384-0.76352-1.7021-1.702-1.702zm-225.96 0.2903c0.78109-1.05e-4 1.4115 0.63001 1.4117 1.4111 1.05e-4 0.78128-0.63038 1.4117-1.4117 1.4117-0.78128 1.05e-4 -1.4117-0.63038-1.4117-1.4117 1.73e-4 -0.78109 0.63058-1.4112 1.4117-1.4111zm10.415 0c0.78128-1.05e-4 1.4117 0.63038 1.4117 1.4117-1.73e-4 0.78109-0.63058 1.4112-1.4117 1.4111-0.78089-1.73e-4 -1.4109-0.63021-1.4111-1.4111-1.05e-4 -0.78109 0.63001-1.4115 1.4111-1.4117zm10.064 0c0.78126-1.05e-4 1.4117 0.63038 1.4117 1.4117-1.73e-4 0.78109-0.63058 1.4112-1.4117 1.4111-0.78089-1.73e-4 -1.4109-0.63021-1.4111-1.4111-1.05e-4 -0.78109 0.63001-1.4115 1.4111-1.4117zm185.01 0c0.78109-1.05e-4 1.4115 0.63001 1.4117 1.4111 1e-4 0.78128-0.63038 1.4117-1.4117 1.4117-0.78125 1.05e-4 -1.4117-0.63038-1.4117-1.4117 1.7e-4 -0.78109 0.63058-1.4112 1.4117-1.4111zm10.415 0c0.78128-1.05e-4 1.4118 0.63038 1.4117 1.4117-1.7e-4 0.78109-0.63057 1.4112-1.4117 1.4111-0.78089-1.73e-4 -1.4109-0.63021-1.4111-1.4111-1e-4 -0.78109 0.63001-1.4115 1.4111-1.4117zm10.064 0c0.78129-1.05e-4 1.4118 0.63038 1.4117 1.4117-1.8e-4 0.78109-0.63058 1.4112-1.4117 1.4111-0.78086-1.76e-4 -1.4109-0.63024-1.4111-1.4111-1e-4 -0.78109 0.63004-1.4115 1.4111-1.4117zm-216.7 58.125h207.38v19.736h-207.38zm209 0h22.43c4.6381 3e-3 8.3668 3.733 8.3668 8.3719v2.8454c0 4.6407-3.7318 8.3725-8.3725 8.3725h-22.418c-0.50971 0-1.0058-0.0528-1.4898-0.13906v-19.312c0.48205-0.0859 0.97615-0.13808 1.4837-0.13851zm-232.38 5e-3h22.351c0.30672 0 0.60896 0.0186 0.90695 0.0504v19.478c-0.29796 0.0318-0.60022 0.0504-0.90695 0.0504h-22.413c-4.2923 0-7.7666-3.2059-8.2681-7.3579v-3.8504c0-4.6254 3.7086-8.3433 8.3297-8.3708zm245.05 2.3634c-0.62802 0-1.138 0.50994-1.138 1.138v11.293c0 0.62803 0.50994 1.138 1.138 1.138h0.23103c0.62802 0 1.138-0.50993 1.138-1.138v-11.293c0-0.62802-0.50994-1.138-1.138-1.138zm4.2376 0c-0.62803 0-1.138 0.50994-1.138 1.138v11.293c0 0.62803 0.50993 1.138 1.138 1.138h0.23102c0.62803 0 1.138-0.50993 1.138-1.138v-11.293c0-0.62802-0.50993-1.138-1.138-1.138zm-4.2376 0.2903h0.23103c0.47201 0 0.84766 0.37565 0.84766 0.84766v11.293c0 0.47201-0.37565 0.84767-0.84766 0.84767h-0.23103c-0.47201 0-0.84766-0.37566-0.84766-0.84767v-11.293c0-0.47201 0.37565-0.84766 0.84766-0.84766zm4.2376 0h0.23102c0.47201 0 0.84766 0.37565 0.84766 0.84766v11.293c0 0.47201-0.37565 0.84767-0.84766 0.84767h-0.23102c-0.47201 0-0.84766-0.37566-0.84766-0.84767v-11.293c0-0.47201 0.37565-0.84766 0.84766-0.84766zm-121.95 2.4682c-0.62802 0-1.138 0.50994-1.138 1.138v5.697c0 0.62802 0.50994 1.138 1.138 1.138h0.30692c0.62803 0 1.138-0.50994 1.138-1.138v-5.697c0-0.62802-0.50993-1.138-1.138-1.138zm0 0.2903h0.30692c0.47198 0 0.84766 0.37565 0.84766 0.84766v5.697c0 0.47201-0.37565 0.84766-0.84766 0.84766h-0.30692c-0.47201 0-0.84766-0.37565-0.84766-0.84766v-5.697c0-0.47201 0.37565-0.84766 0.84766-0.84766zm136.08 6.1591v131.52c0 4.6424-3.7352 8.3751-8.3802 8.3751h-254.98c-4.6449 0-8.3796-3.733-8.3796-8.3751v-129.47c1.0463 3.5999 4.3233 6.2354 8.2681 6.2354h22.413c0.3065 0 0.60882-0.0168 0.90695-0.0476v0.0476h207.64v-0.13629c0.48472 0.0838 0.98053 0.13629 1.4898 0.13629h22.418c4.6651 0 8.4199-3.6714 8.6111-8.2883zm-205.49 14.325c-1.6478 0-2.979 1.3312-2.979 2.979v104.1c0 1.6478 1.3312 2.979 2.979 2.979h138.14c1.6478 0 2.979-1.3312 2.979-2.979v-104.1c0-1.6478-1.3312-2.979-2.979-2.979zm0 0.28477h138.14c1.4951 0 2.6942 1.1991 2.6942 2.6942v104.1c0 1.4951-1.1991 2.6942-2.6942 2.6942h-138.14c-1.4951 0-2.6942-1.1991-2.6942-2.6942v-104.1c0-1.4951 1.1991-2.6942 2.6942-2.6942zm6.7781 4.7442c-0.20607 0-0.40694 0.0208-0.6011 0.0604-0.19411 0.0395-0.38212 0.0976-0.56068 0.17286-0.17846 0.0752-0.34751 0.16745-0.50582 0.27424-0.15829 0.10676-0.30624 0.22813-0.44101 0.36288-0.13476 0.13476-0.25612 0.28272-0.36289 0.44101-0.10678 0.15833-0.19901 0.32737-0.27424 0.50582-0.07528 0.17856-0.13334 0.36655-0.17286 0.56069-0.03953 0.19416-0.06039 0.39505-0.06039 0.6011v91.906c0 0.20607 0.02085 0.40694 0.06039 0.6011 0.03952 0.19412 0.09758 0.38212 0.17286 0.56069 0.07519 0.17836 0.16736 0.34791 0.27424 0.50639 0.10685 0.15842 0.22828 0.30584 0.36289 0.44043 0.13475 0.13476 0.28271 0.25613 0.44101 0.36289 0.15832 0.10679 0.32734 0.19901 0.50582 0.27424 0.17856 0.0753 0.36654 0.13334 0.56068 0.17286 0.19416 0.0395 0.39505 0.0604 0.6011 0.0604h125.09c0.20607 0 0.40694-0.0209 0.60111-0.0604 0.19411-0.0395 0.38212-0.0976 0.56068-0.17286 0.17836-0.0752 0.34791-0.16736 0.50639-0.27424 0.15843-0.10685 0.30584-0.22827 0.44044-0.36289 0.1346-0.1346 0.25603-0.28202 0.36288-0.44043 0.10688-0.15847 0.19906-0.32803 0.27425-0.50639 0.0753-0.17856 0.13333-0.36655 0.17285-0.56069 0.0395-0.19416 0.0604-0.39505 0.0604-0.6011v-91.906c0-0.20607-0.0208-0.40697-0.0604-0.6011-0.0395-0.19412-0.0976-0.38212-0.17285-0.56069-0.0752-0.17846-0.16746-0.34748-0.27425-0.50582-0.10676-0.15829-0.22813-0.30624-0.36288-0.44101-0.13461-0.1346-0.28203-0.25603-0.44044-0.36288-0.15846-0.10688-0.32803-0.19905-0.50639-0.27424-0.17856-0.0753-0.36657-0.13334-0.56068-0.17286-0.19416-0.0395-0.39506-0.0604-0.60111-0.0604zm0 0.28477h125.09c0.1868 0 0.36879 0.0191 0.5446 0.0548 0.17587 0.0358 0.34536 0.0883 0.50639 0.15623 0.16123 0.068 0.31435 0.15102 0.45763 0.24765 0.1433 0.0966 0.27659 0.20678 0.39834 0.32853 0.12161 0.12161 0.2318 0.25547 0.32854 0.39889 0.0967 0.1434 0.17972 0.29594 0.24765 0.45706 0.0679 0.16103 0.12043 0.33052 0.15623 0.50639 0.0358 0.17581 0.0548 0.35781 0.0548 0.5446v91.906c0 0.1868-0.0191 0.36878-0.0548 0.5446-0.0358 0.17586-0.0884 0.34532-0.15623 0.50639-0.068 0.16123-0.15102 0.31435-0.24765 0.45762-0.0966 0.1433-0.20679 0.2766-0.32854 0.39835s-0.25504 0.23188-0.39834 0.32853c-0.14326 0.0966-0.2964 0.17968-0.45763 0.24765-0.16103 0.0679-0.33052 0.12043-0.50639 0.15623-0.1758 0.0358-0.35781 0.0548-0.5446 0.0548h-125.09c-0.1868 0-0.36879-0.0191-0.5446-0.0548-0.17586-0.0358-0.34533-0.0883-0.50639-0.15623-0.16112-0.0679-0.31367-0.15093-0.45706-0.24765-0.14343-0.0967-0.2773-0.20693-0.39888-0.32853-0.12175-0.12175-0.23189-0.25505-0.32854-0.39835-0.09663-0.14326-0.17968-0.29639-0.24765-0.45762-0.06789-0.16104-0.12043-0.33052-0.15624-0.50639-0.0358-0.17582-0.05485-0.35781-0.05485-0.5446v-91.906c0-0.1868 0.01906-0.36879 0.05485-0.5446 0.0358-0.17587 0.08835-0.34536 0.15624-0.50639 0.06792-0.16113 0.15093-0.31367 0.24765-0.45706 0.09674-0.14343 0.20693-0.27729 0.32854-0.39889s0.25546-0.23179 0.39888-0.32853c0.14339-0.0967 0.29594-0.17972 0.45706-0.24765 0.16104-0.0679 0.33052-0.12043 0.50639-0.15623 0.17582-0.0358 0.35781-0.0548 0.5446-0.0548zm166.56 7.239c-4.698 1.2e-4 -8.5098 3.8118-8.5098 8.5098-1.9e-4 4.698 3.8118 8.5104 8.5098 8.5104 4.6983 1.8e-4 8.5106-3.8121 8.5104-8.5104-1.1e-4 -4.698-3.8124-8.5101-8.5104-8.5098zm0 0.30581c4.5329-1.8e-4 8.2043 3.6708 8.2046 8.204 1.8e-4 4.5332-3.6714 8.2046-8.2046 8.2046-4.5329-1.2e-4 -8.2043-3.6714-8.204-8.2046 1.2e-4 -4.5329 3.6711-8.2037 8.204-8.204zm-214.68 10.358c-0.86769 0-1.5712 0.70353-1.5712 1.5712v10.463h-11.103c-0.86769 0-1.5712 0.70353-1.5712 1.5712v12.195c0 0.86769 0.70353 1.5712 1.5712 1.5712h11.103v10.515c0 0.86769 0.70353 1.5712 1.5712 1.5712h12.204c0.86769 0 1.5712-0.70353 1.5712-1.5712v-10.515h9.8566c0.86769 0 1.5712-0.70353 1.5712-1.5712v-12.195c0-0.86769-0.70353-1.5712-1.5712-1.5712h-9.8566v-10.463c0-0.86769-0.70353-1.5712-1.5712-1.5712zm0 0.30581h12.204c0.70376 0 1.2654 0.56159 1.2654 1.2654v10.769h10.162c0.70376 0 1.2654 0.56159 1.2654 1.2654v12.195c0 0.70378-0.56162 1.2654-1.2654 1.2654h-10.162v10.821c0 0.70378-0.56162 1.2654-1.2654 1.2654h-12.204c-0.70379 0-1.2654-0.56159-1.2654-1.2654v-10.821h-11.409c-0.70379 0-1.2654-0.56159-1.2654-1.2654v-12.195c0-0.70379 0.56159-1.2654 1.2654-1.2654h11.409v-10.769c0-0.70379 0.56159-1.2654 1.2654-1.2654zm199.17 4.8838c-4.698 1.3e-4 -8.5101 3.8124-8.5098 8.5104 1.2e-4 4.698 3.8118 8.5098 8.5098 8.5098 4.698-1.2e-4 8.5098-3.8118 8.5098-8.5098 1.9e-4 -4.698-3.8118-8.5104-8.5098-8.5104zm31.841 0c-4.6983-1.9e-4 -8.5106 3.8121-8.5104 8.5104 1.3e-4 4.698 3.8124 8.5101 8.5104 8.5098 4.698-1.2e-4 8.5098-3.8118 8.5098-8.5098 1.7e-4 -4.698-3.8118-8.5104-8.5098-8.5104zm-31.841 0.30582c4.5329 1.1e-4 8.2043 3.6714 8.204 8.2046-1.2e-4 4.5329-3.6711 8.2037-8.204 8.204-4.5329-1.1e-4 -8.2037-3.6711-8.204-8.204-1.8e-4 -4.5329 3.6708-8.2043 8.204-8.2046zm31.841 0c4.5329 1.1e-4 8.2043 3.6714 8.204 8.2046-1.2e-4 4.5329-3.6711 8.2037-8.204 8.204-4.5329 1.9e-4 -8.2043-3.6708-8.2046-8.204-1.8e-4 -4.5332 3.6714-8.2046 8.2046-8.2046zm-16.335 15.657c-4.698 1.2e-4 -8.5098 3.8118-8.5098 8.5098-1.9e-4 4.698 3.8118 8.5104 8.5098 8.5104 4.6983 1.9e-4 8.5106-3.8121 8.5104-8.5104-1.2e-4 -4.698-3.8124-8.5101-8.5104-8.5098zm0 0.30581c4.5329-1.8e-4 8.2043 3.6708 8.2046 8.204 1.8e-4 4.5332-3.6714 8.2046-8.2046 8.2046-4.5329-1.2e-4 -8.2043-3.6714-8.204-8.2046 1.2e-4 -4.5329 3.6711-8.2037 8.204-8.204zm-19.759 37.976c-2.3508-4e-5 -4.26 1.9091-4.26 4.26-3e-5 2.3508 1.9092 4.26 4.26 4.26 2.3508 3e-5 4.26-1.9092 4.26-4.26 3e-5 -2.3508-1.9092-4.26-4.26-4.26zm0 0.30581c2.1857-3e-5 3.9542 1.7684 3.9539 3.9539 3e-5 2.1857-1.7684 3.9542-3.9539 3.9539-2.1857 4e-5 -3.9542-1.7684-3.9539-3.9539-3e-5 -2.1857 1.7684-3.9542 3.9539-3.9539zm0 15.876c-2.3508-4e-5 -4.26 1.9091-4.26 4.26-3e-5 2.3508 1.9092 4.26 4.26 4.26 2.3508 4e-5 4.26-1.9091 4.26-4.26 3e-5 -2.3507-1.9092-4.26-4.26-4.26zm0 0.30581c2.1857-3e-5 3.9542 1.7684 3.9539 3.9539 3e-5 2.1857-1.7684 3.9542-3.9539 3.9539-2.1857 3e-5 -3.9542-1.7684-3.9539-3.9539-3e-5 -2.1857 1.7684-3.9542 3.9539-3.9539z" color="#000000" stroke-width=".30000"/>
</svg>
